<svg width="208" height="58" viewBox="0 0 208 58" fill="none" xmlns="http://www.w3.org/2000/svg">
<g filter="url(#filter0_d_1_3321)">
<rect x="4" width="200" height="50" rx="4" fill="#2196F3"/>
</g>
<path d="M50.0472 27.0156C50.0472 26.5729 49.8909 26.2344 49.5784 26C49.2659 25.7604 48.7034 25.5104 47.8909 25.25C47.0784 24.9844 46.4352 24.724 45.9613 24.4688C44.6696 23.7708 44.0238 22.8307 44.0238 21.6484C44.0238 21.0339 44.1956 20.487 44.5394 20.0078C44.8883 19.5234 45.3857 19.1458 46.0316 18.875C46.6826 18.6042 47.4118 18.4688 48.2191 18.4688C49.0316 18.4688 49.7555 18.6172 50.3909 18.9141C51.0264 19.2057 51.5185 19.6198 51.8675 20.1562C52.2217 20.6927 52.3988 21.3021 52.3988 21.9844H50.055C50.055 21.4635 49.8909 21.0599 49.5628 20.7734C49.2347 20.4818 48.7738 20.3359 48.18 20.3359C47.6071 20.3359 47.1618 20.4583 46.8441 20.7031C46.5264 20.9427 46.3675 21.2604 46.3675 21.6562C46.3675 22.026 46.5524 22.3359 46.9222 22.5859C47.2972 22.8359 47.8467 23.0703 48.5706 23.2891C49.904 23.6901 50.8753 24.1875 51.4847 24.7812C52.0941 25.375 52.3988 26.1146 52.3988 27C52.3988 27.9844 52.0264 28.7578 51.2816 29.3203C50.5368 29.8776 49.5342 30.1562 48.2738 30.1562C47.3988 30.1562 46.6019 29.9974 45.8831 29.6797C45.1644 29.3568 44.6149 28.9167 44.2347 28.3594C43.8597 27.8021 43.6722 27.1562 43.6722 26.4219H46.0238C46.0238 27.6771 46.7738 28.3047 48.2738 28.3047C48.831 28.3047 49.2659 28.1927 49.5784 27.9688C49.8909 27.7396 50.0472 27.4219 50.0472 27.0156ZM59.8666 29.1406C59.3093 29.8177 58.5384 30.1562 57.5541 30.1562C56.6478 30.1562 55.9551 29.8958 55.4759 29.375C55.002 28.8542 54.7598 28.0911 54.7494 27.0859V21.5469H57.0072V27.0078C57.0072 27.888 57.4082 28.3281 58.2103 28.3281C58.9759 28.3281 59.502 28.0625 59.7884 27.5312V21.5469H62.0541V30H59.9291L59.8666 29.1406ZM69.2953 27.6641C69.2953 27.388 69.1573 27.1719 68.8813 27.0156C68.6104 26.8542 68.1729 26.7109 67.5688 26.5859C65.5583 26.1641 64.5531 25.3099 64.5531 24.0234C64.5531 23.2734 64.863 22.6484 65.4828 22.1484C66.1078 21.6432 66.9229 21.3906 67.9281 21.3906C69.001 21.3906 69.8578 21.6432 70.4984 22.1484C71.1443 22.6536 71.4672 23.3099 71.4672 24.1172H69.2094C69.2094 23.7943 69.1052 23.5286 68.8969 23.3203C68.6885 23.1068 68.363 23 67.9203 23C67.5401 23 67.2458 23.0859 67.0375 23.2578C66.8292 23.4297 66.725 23.6484 66.725 23.9141C66.725 24.1641 66.8422 24.3672 67.0766 24.5234C67.3161 24.6745 67.7172 24.8073 68.2797 24.9219C68.8422 25.0312 69.3161 25.1562 69.7016 25.2969C70.8943 25.7344 71.4906 26.4922 71.4906 27.5703C71.4906 28.3411 71.1599 28.9661 70.4984 29.4453C69.837 29.9193 68.9828 30.1562 67.9359 30.1562C67.2276 30.1562 66.5974 30.0312 66.0453 29.7812C65.4984 29.526 65.0688 29.1797 64.7563 28.7422C64.4438 28.2995 64.2875 27.8229 64.2875 27.3125H66.4281C66.449 27.7135 66.5974 28.0208 66.8734 28.2344C67.1495 28.4479 67.5193 28.5547 67.9828 28.5547C68.4151 28.5547 68.7406 28.474 68.9594 28.3125C69.1833 28.1458 69.2953 27.9297 69.2953 27.6641ZM77.4272 28.3359C77.8439 28.3359 78.1824 28.2214 78.4428 27.9922C78.7032 27.763 78.8386 27.4583 78.8491 27.0781H80.9662C80.961 27.651 80.8048 28.1771 80.4975 28.6562C80.1902 29.1302 79.7683 29.5 79.2319 29.7656C78.7006 30.026 78.1121 30.1562 77.4662 30.1562C76.2579 30.1562 75.3048 29.7734 74.6069 29.0078C73.909 28.237 73.56 27.1745 73.56 25.8203V25.6719C73.56 24.3698 73.9064 23.3307 74.5991 22.5547C75.2918 21.7786 76.2423 21.3906 77.4506 21.3906C78.5079 21.3906 79.3543 21.6927 79.9897 22.2969C80.6303 22.8958 80.9558 23.6953 80.9662 24.6953H78.8491C78.8386 24.2578 78.7032 23.9036 78.4428 23.6328C78.1824 23.3568 77.8386 23.2188 77.4116 23.2188C76.8855 23.2188 76.4871 23.4115 76.2162 23.7969C75.9506 24.1771 75.8178 24.7969 75.8178 25.6562V25.8906C75.8178 26.7604 75.9506 27.3854 76.2162 27.7656C76.4819 28.1458 76.8855 28.3359 77.4272 28.3359ZM87.9653 23.6641C87.658 23.6224 87.3872 23.6016 87.1528 23.6016C86.2986 23.6016 85.7388 23.8906 85.4731 24.4688V30H83.2153V21.5469H85.3481L85.4106 22.5547C85.8638 21.7786 86.4914 21.3906 87.2934 21.3906C87.5434 21.3906 87.7778 21.4245 87.9966 21.4922L87.9653 23.6641ZM92.4566 30H90.1987V21.5469H92.4566V30ZM91.7925 18.1172H94.2534L92.0894 20.5391H90.2534L91.7925 18.1172ZM102.987 25.8516C102.987 27.2057 102.698 28.263 102.12 29.0234C101.542 29.7786 100.734 30.1562 99.6978 30.1562C98.7811 30.1562 98.0494 29.8047 97.5025 29.1016L97.4009 30H95.3697V18H97.6275V22.3047C98.1483 21.6953 98.8332 21.3906 99.6822 21.3906C100.713 21.3906 101.521 21.7708 102.104 22.5312C102.693 23.2865 102.987 24.3516 102.987 25.7266V25.8516ZM100.729 25.6875C100.729 24.8333 100.594 24.2109 100.323 23.8203C100.052 23.4245 99.6483 23.2266 99.1119 23.2266C98.3931 23.2266 97.8983 23.5208 97.6275 24.1094V27.4453C97.9035 28.0391 98.4035 28.3359 99.1275 28.3359C99.8567 28.3359 100.336 27.9766 100.565 27.2578C100.674 26.9141 100.729 26.3906 100.729 25.6875ZM110.244 30C110.14 29.7969 110.064 29.5443 110.017 29.2422C109.47 29.8516 108.759 30.1562 107.884 30.1562C107.056 30.1562 106.369 29.9167 105.822 29.4375C105.28 28.9583 105.009 28.3542 105.009 27.625C105.009 26.7292 105.34 26.0417 106.002 25.5625C106.668 25.0833 107.629 24.8411 108.884 24.8359H109.923V24.3516C109.923 23.9609 109.822 23.6484 109.619 23.4141C109.421 23.1797 109.106 23.0625 108.673 23.0625C108.293 23.0625 107.994 23.1536 107.775 23.3359C107.561 23.5182 107.455 23.7682 107.455 24.0859H105.197C105.197 23.5964 105.348 23.1432 105.65 22.7266C105.952 22.3099 106.379 21.9844 106.931 21.75C107.483 21.5104 108.103 21.3906 108.791 21.3906C109.832 21.3906 110.658 21.6536 111.267 22.1797C111.882 22.7005 112.189 23.4349 112.189 24.3828V28.0469C112.194 28.849 112.306 29.4557 112.525 29.8672V30H110.244ZM108.377 28.4297C108.71 28.4297 109.017 28.3568 109.298 28.2109C109.58 28.0599 109.788 27.8594 109.923 27.6094V26.1562H109.08C107.949 26.1562 107.348 26.5469 107.275 27.3281L107.267 27.4609C107.267 27.7422 107.366 27.974 107.564 28.1562C107.762 28.3385 108.033 28.4297 108.377 28.4297ZM119.462 27.6641C119.462 27.388 119.324 27.1719 119.048 27.0156C118.777 26.8542 118.339 26.7109 117.735 26.5859C115.725 26.1641 114.719 25.3099 114.719 24.0234C114.719 23.2734 115.029 22.6484 115.649 22.1484C116.274 21.6432 117.089 21.3906 118.094 21.3906C119.167 21.3906 120.024 21.6432 120.665 22.1484C121.311 22.6536 121.633 23.3099 121.633 24.1172H119.376C119.376 23.7943 119.271 23.5286 119.063 23.3203C118.855 23.1068 118.529 23 118.087 23C117.706 23 117.412 23.0859 117.204 23.2578C116.995 23.4297 116.891 23.6484 116.891 23.9141C116.891 24.1641 117.008 24.3672 117.243 24.5234C117.482 24.6745 117.883 24.8073 118.446 24.9219C119.008 25.0312 119.482 25.1562 119.868 25.2969C121.061 25.7344 121.657 26.4922 121.657 27.5703C121.657 28.3411 121.326 28.9661 120.665 29.4453C120.003 29.9193 119.149 30.1562 118.102 30.1562C117.394 30.1562 116.764 30.0312 116.212 29.7812C115.665 29.526 115.235 29.1797 114.923 28.7422C114.61 28.2995 114.454 27.8229 114.454 27.3125H116.594C116.615 27.7135 116.764 28.0208 117.04 28.2344C117.316 28.4479 117.686 28.5547 118.149 28.5547C118.581 28.5547 118.907 28.474 119.126 28.3125C119.35 28.1458 119.462 27.9297 119.462 27.6641ZM127.968 30.1562C126.729 30.1562 125.718 29.776 124.937 29.0156C124.161 28.2552 123.773 27.2422 123.773 25.9766V25.7578C123.773 24.9089 123.937 24.151 124.265 23.4844C124.593 22.8125 125.057 22.2969 125.656 21.9375C126.26 21.5729 126.948 21.3906 127.718 21.3906C128.875 21.3906 129.784 21.7552 130.445 22.4844C131.112 23.2135 131.445 24.2474 131.445 25.5859V26.5078H126.062C126.135 27.0599 126.354 27.5026 126.718 27.8359C127.088 28.1693 127.554 28.3359 128.117 28.3359C128.987 28.3359 129.666 28.0208 130.156 27.3906L131.265 28.6328C130.927 29.112 130.468 29.487 129.89 29.7578C129.312 30.0234 128.672 30.1562 127.968 30.1562ZM127.711 23.2188C127.263 23.2188 126.898 23.3698 126.617 23.6719C126.341 23.974 126.164 24.4062 126.086 24.9688H129.226V24.7891C129.216 24.2891 129.08 23.9036 128.82 23.6328C128.56 23.3568 128.19 23.2188 127.711 23.2188Z" fill="white"/>
<path d="M176 12.9999L152 26.4999L159.67 29.3406L171.5 18.2499L162.502 30.3894L162.509 30.3921L162.5 30.3894V36.9999L166.801 31.9818L172.25 33.9999L176 12.9999Z" fill="white"/>
<defs>
<filter id="filter0_d_1_3321" x="0" y="0" width="208" height="58" filterUnits="userSpaceOnUse" color-interpolation-filters="sRGB">
<feFlood flood-opacity="0" result="BackgroundImageFix"/>
<feColorMatrix in="SourceAlpha" type="matrix" values="0 0 0 0 0 0 0 0 0 0 0 0 0 0 0 0 0 0 127 0" result="hardAlpha"/>
<feOffset dy="4"/>
<feGaussianBlur stdDeviation="2"/>
<feColorMatrix type="matrix" values="0 0 0 0 0 0 0 0 0 0 0 0 0 0 0 0 0 0 0.15 0"/>
<feBlend mode="normal" in2="BackgroundImageFix" result="effect1_dropShadow_1_3321"/>
<feBlend mode="normal" in="SourceGraphic" in2="effect1_dropShadow_1_3321" result="shape"/>
</filter>
</defs>
</svg>
