<svg width="81" height="15" viewBox="0 0 81 15" fill="none" xmlns="http://www.w3.org/2000/svg">
    <path
        d="M7.6748 8.57715H2.52441V14H0.300781V1.20312H8.43066V2.99609H2.52441V6.80176H7.6748V8.57715ZM15.734 14C15.6403 13.8184 15.5582 13.5225 15.4879 13.1123C14.8082 13.8213 13.9762 14.1758 12.9918 14.1758C12.0368 14.1758 11.2575 13.9033 10.6539 13.3584C10.0504 12.8135 9.74867 12.1396 9.74867 11.3369C9.74867 10.3232 10.1237 9.54688 10.8737 9.00781C11.6295 8.46289 12.7077 8.19043 14.108 8.19043H15.4176V7.56641C15.4176 7.07422 15.2799 6.68164 15.0045 6.38867C14.7291 6.08984 14.3102 5.94043 13.7477 5.94043C13.2614 5.94043 12.8629 6.06348 12.5524 6.30957C12.2418 6.5498 12.0866 6.85742 12.0866 7.23242H9.95082C9.95082 6.71094 10.1237 6.22461 10.4694 5.77344C10.8151 5.31641 11.2838 4.95898 11.8756 4.70117C12.4733 4.44336 13.1383 4.31445 13.8707 4.31445C14.984 4.31445 15.8717 4.5957 16.5338 5.1582C17.1959 5.71484 17.5358 6.5 17.5534 7.51367V11.8027C17.5534 12.6582 17.6735 13.3408 17.9137 13.8506V14H15.734ZM13.3873 12.4619C13.8092 12.4619 14.2047 12.3594 14.5739 12.1543C14.9489 11.9492 15.2301 11.6738 15.4176 11.3281V9.53516H14.2662C13.4752 9.53516 12.8805 9.67285 12.4821 9.94824C12.0836 10.2236 11.8844 10.6133 11.8844 11.1172C11.8844 11.5273 12.0192 11.8555 12.2887 12.1016C12.5641 12.3418 12.9303 12.4619 13.3873 12.4619ZM24.0569 12.4707C24.5901 12.4707 25.0325 12.3154 25.3841 12.0049C25.7356 11.6943 25.9231 11.3105 25.9466 10.8535H27.9593C27.9358 11.4453 27.7512 11.999 27.4055 12.5146C27.0598 13.0244 26.5911 13.4287 25.9993 13.7275C25.4075 14.0264 24.7688 14.1758 24.0833 14.1758C22.7532 14.1758 21.6985 13.7451 20.9192 12.8838C20.1399 12.0225 19.7503 10.833 19.7503 9.31543V9.0957C19.7503 7.64844 20.137 6.49121 20.9104 5.62402C21.6839 4.75098 22.7386 4.31445 24.0745 4.31445C25.2054 4.31445 26.1253 4.64551 26.8343 5.30762C27.5491 5.96387 27.9241 6.82812 27.9593 7.90039H25.9466C25.9231 7.35547 25.7356 6.90723 25.3841 6.55566C25.0384 6.2041 24.596 6.02832 24.0569 6.02832C23.3655 6.02832 22.8323 6.28027 22.4573 6.78418C22.0823 7.28223 21.8919 8.04102 21.886 9.06055V9.40332C21.886 10.4346 22.0706 11.2051 22.4397 11.7148C22.8147 12.2188 23.3538 12.4707 24.0569 12.4707ZM34.12 14.1758C32.7665 14.1758 31.6679 13.751 30.8241 12.9014C29.9862 12.0459 29.5673 10.9092 29.5673 9.49121V9.22754C29.5673 8.27832 29.7489 7.43164 30.1122 6.6875C30.4814 5.9375 30.997 5.35449 31.6591 4.93848C32.3212 4.52246 33.0595 4.31445 33.8739 4.31445C35.1689 4.31445 36.1679 4.72754 36.871 5.55371C37.58 6.37988 37.9345 7.54883 37.9345 9.06055V9.92188H31.7206C31.7851 10.707 32.0458 11.3281 32.5029 11.7852C32.9657 12.2422 33.5458 12.4707 34.2431 12.4707C35.2216 12.4707 36.0185 12.0752 36.6337 11.2842L37.7851 12.3828C37.4042 12.9512 36.8945 13.3936 36.2558 13.71C35.623 14.0205 34.9111 14.1758 34.12 14.1758ZM33.8652 6.02832C33.2792 6.02832 32.8046 6.2334 32.4413 6.64355C32.0839 7.05371 31.8554 7.625 31.7558 8.35742H35.8251V8.19922C35.7782 7.48438 35.5878 6.94531 35.2538 6.58203C34.9198 6.21289 34.457 6.02832 33.8652 6.02832ZM48.3052 9.3418C48.3052 10.8184 47.9742 11.9932 47.3121 12.8662C46.6558 13.7393 45.7505 14.1758 44.5962 14.1758C43.483 14.1758 42.6158 13.7744 41.9947 12.9717L41.8892 14H39.9556V0.5H42.0914V5.4043C42.7066 4.67773 43.5357 4.31445 44.5787 4.31445C45.7388 4.31445 46.65 4.74512 47.3121 5.60645C47.9742 6.46777 48.3052 7.67188 48.3052 9.21875V9.3418ZM46.1695 9.15723C46.1695 8.12598 45.9879 7.35254 45.6246 6.83691C45.2613 6.32129 44.7339 6.06348 44.0425 6.06348C43.1168 6.06348 42.4664 6.46777 42.0914 7.27637V11.1963C42.4722 12.0225 43.1285 12.4355 44.0601 12.4355C44.7281 12.4355 45.2437 12.1865 45.607 11.6885C45.9703 11.1904 46.1578 10.4375 46.1695 9.42969V9.15723ZM50.0627 9.15723C50.0627 8.22559 50.2473 7.3877 50.6164 6.64355C50.9855 5.89355 51.5041 5.31934 52.1721 4.9209C52.84 4.5166 53.6076 4.31445 54.4748 4.31445C55.758 4.31445 56.798 4.72754 57.5949 5.55371C58.3977 6.37988 58.8312 7.47559 58.8957 8.84082L58.9045 9.3418C58.9045 10.2793 58.7229 11.1172 58.3596 11.8555C58.0021 12.5938 57.4865 13.165 56.8127 13.5693C56.1447 13.9736 55.3713 14.1758 54.4924 14.1758C53.1506 14.1758 52.0754 13.7305 51.2668 12.8398C50.4641 11.9434 50.0627 10.751 50.0627 9.2627V9.15723ZM52.1984 9.3418C52.1984 10.3203 52.4006 11.0879 52.8049 11.6445C53.2092 12.1953 53.7717 12.4707 54.4924 12.4707C55.2131 12.4707 55.7727 12.1895 56.1711 11.627C56.5754 11.0645 56.7775 10.2412 56.7775 9.15723C56.7775 8.19629 56.5695 7.43457 56.1535 6.87207C55.7434 6.30957 55.1838 6.02832 54.4748 6.02832C53.7775 6.02832 53.2238 6.30664 52.8137 6.86328C52.4035 7.41406 52.1984 8.24023 52.1984 9.3418ZM60.6707 9.15723C60.6707 8.22559 60.8553 7.3877 61.2245 6.64355C61.5936 5.89355 62.1121 5.31934 62.7801 4.9209C63.4481 4.5166 64.2157 4.31445 65.0829 4.31445C66.3661 4.31445 67.4061 4.72754 68.203 5.55371C69.0057 6.37988 69.4393 7.47559 69.5037 8.84082L69.5125 9.3418C69.5125 10.2793 69.3309 11.1172 68.9676 11.8555C68.6102 12.5938 68.0946 13.165 67.4207 13.5693C66.7528 13.9736 65.9793 14.1758 65.1004 14.1758C63.7586 14.1758 62.6834 13.7305 61.8748 12.8398C61.0721 11.9434 60.6707 10.751 60.6707 9.2627V9.15723ZM62.8065 9.3418C62.8065 10.3203 63.0086 11.0879 63.4129 11.6445C63.8172 12.1953 64.3797 12.4707 65.1004 12.4707C65.8211 12.4707 66.3807 12.1895 66.7791 11.627C67.1834 11.0645 67.3856 10.2412 67.3856 9.15723C67.3856 8.19629 67.1776 7.43457 66.7616 6.87207C66.3514 6.30957 65.7918 6.02832 65.0829 6.02832C64.3856 6.02832 63.8319 6.30664 63.4217 6.86328C63.0116 7.41406 62.8065 8.24023 62.8065 9.3418ZM74.768 9.92188L73.8188 10.8975V14H71.6831V0.5H73.8188V8.28711L74.4868 7.45215L77.1147 4.49023H79.6811L76.1479 8.4541L80.0591 14H77.5893L74.768 9.92188Z"
        fill="#2196F3" />
</svg>