<svg width="69" height="15" viewBox="0 0 69 15" fill="none" xmlns="http://www.w3.org/2000/svg">
    <path
        d="M2.52441 12.2246H8.33398V14H0.300781V1.20312H2.52441V12.2246ZM12.4645 14H10.3287V4.49023H12.4645V14ZM10.1969 2.02051C10.1969 1.69238 10.2995 1.41992 10.5045 1.20312C10.7155 0.986328 11.0143 0.87793 11.401 0.87793C11.7877 0.87793 12.0866 0.986328 12.2975 1.20312C12.5084 1.41992 12.6139 1.69238 12.6139 2.02051C12.6139 2.34277 12.5084 2.6123 12.2975 2.8291C12.0866 3.04004 11.7877 3.14551 11.401 3.14551C11.0143 3.14551 10.7155 3.04004 10.5045 2.8291C10.2995 2.6123 10.1969 2.34277 10.1969 2.02051ZM17.1399 4.49023L17.2014 5.58887C17.9046 4.73926 18.8274 4.31445 19.97 4.31445C21.9505 4.31445 22.9583 5.44824 22.9934 7.71582V14H20.8577V7.83887C20.8577 7.23535 20.7259 6.79004 20.4622 6.50293C20.2044 6.20996 19.7796 6.06348 19.1878 6.06348C18.3264 6.06348 17.6848 6.45312 17.263 7.23242V14H15.1272V4.49023H17.1399ZM28.6269 9.92188L27.6777 10.8975V14H25.5419V0.5H27.6777V8.28711L28.3456 7.45215L30.9736 4.49023H33.54L30.0068 8.4541L33.9179 14H31.4482L28.6269 9.92188ZM39.314 14.1758C37.9605 14.1758 36.8619 13.751 36.0181 12.9014C35.1802 12.0459 34.7613 10.9092 34.7613 9.49121V9.22754C34.7613 8.27832 34.9429 7.43164 35.3062 6.6875C35.6754 5.9375 36.191 5.35449 36.8531 4.93848C37.5152 4.52246 38.2535 4.31445 39.0679 4.31445C40.3629 4.31445 41.3619 4.72754 42.065 5.55371C42.774 6.37988 43.1285 7.54883 43.1285 9.06055V9.92188H36.9146C36.9791 10.707 37.2398 11.3281 37.6968 11.7852C38.1597 12.2422 38.7398 12.4707 39.4371 12.4707C40.4156 12.4707 41.2125 12.0752 41.8277 11.2842L42.9791 12.3828C42.5982 12.9512 42.0884 13.3936 41.4498 13.71C40.817 14.0205 40.105 14.1758 39.314 14.1758ZM39.0591 6.02832C38.4732 6.02832 37.9986 6.2334 37.6353 6.64355C37.2779 7.05371 37.0494 7.625 36.9498 8.35742H41.0191V8.19922C40.9722 7.48438 40.7818 6.94531 40.4478 6.58203C40.1138 6.21289 39.6509 6.02832 39.0591 6.02832ZM44.7541 9.1748C44.7541 7.70996 45.0939 6.53516 45.7736 5.65039C46.4533 4.75977 47.3645 4.31445 48.507 4.31445C49.5148 4.31445 50.3293 4.66602 50.9504 5.36914V0.5H53.0861V14H51.1525L51.0471 13.0156C50.4084 13.7891 49.5559 14.1758 48.4895 14.1758C47.3762 14.1758 46.4738 13.7275 45.7824 12.8311C45.0969 11.9346 44.7541 10.7158 44.7541 9.1748ZM46.8898 9.35938C46.8898 10.3262 47.0744 11.082 47.4436 11.627C47.8186 12.166 48.3488 12.4355 49.0344 12.4355C49.9074 12.4355 50.5461 12.0459 50.9504 11.2666V7.20605C50.5578 6.44434 49.925 6.06348 49.052 6.06348C48.3605 6.06348 47.8273 6.33887 47.4523 6.88965C47.0773 7.43457 46.8898 8.25781 46.8898 9.35938ZM58.2274 14H56.0125V1.20312H58.2274V14ZM63.0962 4.49023L63.1577 5.58887C63.8608 4.73926 64.7837 4.31445 65.9263 4.31445C67.9067 4.31445 68.9145 5.44824 68.9497 7.71582V14H66.8139V7.83887C66.8139 7.23535 66.6821 6.79004 66.4184 6.50293C66.1606 6.20996 65.7358 6.06348 65.144 6.06348C64.2827 6.06348 63.6411 6.45312 63.2192 7.23242V14H61.0835V4.49023H63.0962Z"
        fill="#2196F3" />
</svg>