<svg width="59" height="15" viewBox="0 0 59 15" fill="none" xmlns="http://www.w3.org/2000/svg">
    <path
        d="M10.5469 2.99609H6.55664V14H4.35059V2.99609H0.395508V1.20312H10.5469V2.99609ZM20.32 11.0557L21.8317 4.49023H23.9147L21.3219 14H19.5641L17.525 7.46973L15.5211 14H13.7633L11.1618 4.49023H13.2448L14.7829 10.9854L16.734 4.49023H18.3424L20.32 11.0557ZM27.9749 14H25.8391V4.49023H27.9749V14ZM25.7073 2.02051C25.7073 1.69238 25.8098 1.41992 26.0149 1.20312C26.2259 0.986328 26.5247 0.87793 26.9114 0.87793C27.2981 0.87793 27.597 0.986328 27.8079 1.20312C28.0188 1.41992 28.1243 1.69238 28.1243 2.02051C28.1243 2.34277 28.0188 2.6123 27.8079 2.8291C27.597 3.04004 27.2981 3.14551 26.9114 3.14551C26.5247 3.14551 26.2259 3.04004 26.0149 2.8291C25.8098 2.6123 25.7073 2.34277 25.7073 2.02051ZM33.3446 2.17871V4.49023H35.0234V6.07227H33.3446V11.3809C33.3446 11.7441 33.415 12.0078 33.5556 12.1719C33.7021 12.3301 33.9599 12.4092 34.329 12.4092C34.5751 12.4092 34.8241 12.3799 35.0761 12.3213V13.9736C34.5898 14.1084 34.121 14.1758 33.6698 14.1758C32.0292 14.1758 31.2089 13.2705 31.2089 11.46V6.07227H29.6445V4.49023H31.2089V2.17871H33.3446ZM39.6988 2.17871V4.49023H41.3775V6.07227H39.6988V11.3809C39.6988 11.7441 39.7691 12.0078 39.9097 12.1719C40.0562 12.3301 40.314 12.4092 40.6832 12.4092C40.9293 12.4092 41.1783 12.3799 41.4302 12.3213V13.9736C40.9439 14.1084 40.4752 14.1758 40.024 14.1758C38.3834 14.1758 37.563 13.2705 37.563 11.46V6.07227H35.9986V4.49023H37.563V2.17871H39.6988ZM47.5646 14.1758C46.2111 14.1758 45.1125 13.751 44.2687 12.9014C43.4309 12.0459 43.0119 10.9092 43.0119 9.49121V9.22754C43.0119 8.27832 43.1936 7.43164 43.5568 6.6875C43.926 5.9375 44.4416 5.35449 45.1037 4.93848C45.7658 4.52246 46.5041 4.31445 47.3186 4.31445C48.6135 4.31445 49.6125 4.72754 50.3156 5.55371C51.0246 6.37988 51.3791 7.54883 51.3791 9.06055V9.92188H45.1652C45.2297 10.707 45.4904 11.3281 45.9475 11.7852C46.4104 12.2422 46.9904 12.4707 47.6877 12.4707C48.6662 12.4707 49.4631 12.0752 50.0783 11.2842L51.2297 12.3828C50.8488 12.9512 50.3391 13.3936 49.7004 13.71C49.0676 14.0205 48.3557 14.1758 47.5646 14.1758ZM47.3098 6.02832C46.7238 6.02832 46.2492 6.2334 45.8859 6.64355C45.5285 7.05371 45.3 7.625 45.2004 8.35742H49.2697V8.19922C49.2229 7.48438 49.0324 6.94531 48.6984 6.58203C48.3645 6.21289 47.9016 6.02832 47.3098 6.02832ZM58.3836 6.44141C58.1024 6.39453 57.8123 6.37109 57.5135 6.37109C56.535 6.37109 55.8758 6.74609 55.536 7.49609V14H53.4002V4.49023H55.4393L55.492 5.55371C56.0077 4.72754 56.7225 4.31445 57.6366 4.31445C57.9412 4.31445 58.1932 4.35547 58.3924 4.4375L58.3836 6.44141Z"
        fill="#2196F3" />
</svg>